<svg width="47" height="37" viewBox="0 0 47 37" fill="none" xmlns="http://www.w3.org/2000/svg">
<path fill-rule="evenodd" clip-rule="evenodd" d="M0 12.8215L5.53571 12.8215L11.0714 28.3215H26.5714L31 16.143H12.1786" fill="#002045"/>
<path d="M0 12.8215L5.53571 12.8215L11.0714 28.3215H26.5714L31 16.143H12.1786" stroke="white" stroke-width="2.5"/>
<circle cx="25.2512" cy="33.8005" r="2.36838" fill="white"/>
<circle cx="13.132" cy="33.8005" r="2.36838" fill="white"/>
<circle cx="33.5" cy="14.5" r="12.5" fill="#0076FF" stroke="#131921" stroke-width="2"/>
<path d="M36.7876 18H31.2983V16.8452L33.2695 14.8525C33.8532 14.2546 34.2345 13.841 34.4136 13.6118C34.5926 13.3791 34.7215 13.1642 34.8003 12.9673C34.8791 12.7703 34.9185 12.5662 34.9185 12.355C34.9185 12.0399 34.8307 11.8053 34.6553 11.6514C34.4834 11.4974 34.2524 11.4204 33.9624 11.4204C33.658 11.4204 33.3626 11.4902 33.0762 11.6299C32.7897 11.7695 32.4907 11.9683 32.1792 12.2261L31.2769 11.1572C31.6636 10.8278 31.984 10.5951 32.2383 10.459C32.4925 10.3229 32.77 10.2191 33.0708 10.1475C33.3716 10.0723 33.7082 10.0347 34.0806 10.0347C34.5711 10.0347 35.0044 10.1242 35.3804 10.3032C35.7563 10.4823 36.0482 10.7329 36.2559 11.0552C36.4635 11.3774 36.5674 11.7463 36.5674 12.1616C36.5674 12.5233 36.5029 12.8634 36.374 13.1821C36.2487 13.4972 36.0518 13.8213 35.7832 14.1543C35.5182 14.4873 35.0492 14.9618 34.376 15.5776L33.3662 16.5283V16.6035H36.7876V18Z" fill="white"/>
</svg>
